<svg xmlns="http://www.w3.org/2000/svg" width="14.767" height="11.859" viewBox="0 0 14.767 11.859">
  <path id="Icon_awesome-angle-double-right" data-name="Icon awesome-angle-double-right" d="M9.133,13.306,4.095,18.344a.885.885,0,0,1-1.256,0L2,17.507a.885.885,0,0,1,0-1.256L5.573,12.68,2,9.108A.885.885,0,0,1,2,7.852l.834-.845a.885.885,0,0,1,1.256,0l5.038,5.038a.887.887,0,0,1,0,1.26Zm7.113-1.26L11.208,7.008a.885.885,0,0,0-1.256,0l-.837.837a.885.885,0,0,0,0,1.256l3.571,3.571L9.115,16.244a.885.885,0,0,0,0,1.256l.837.837a.885.885,0,0,0,1.256,0L16.246,13.3a.881.881,0,0,0,0-1.252Z" transform="translate(-1.74 -6.747)" fill="#127cea"/>
</svg>
