<svg xmlns="http://www.w3.org/2000/svg" width="35.744" height="45.823" viewBox="0 0 35.744 45.823">
  <g id="그룹_12" data-name="그룹 12" transform="translate(-313.364 -355.236)">
    <path id="패스_23" data-name="패스 23" d="M349.108,396.5l-3.839,4.561-5.208-5.195a16.767,16.767,0,0,1-9.046,2.537c-9.868,0-17.651-7.733-17.651-21.581s7.783-21.584,17.651-21.584,17.652,7.732,17.652,21.584c0,6.289-1.59,11.311-4.275,14.945Zm-17.1-8.658,3.889-4.615,3.894,3.926c1.59-2.6,2.412-6.06,2.412-10.331,0-9.524-4.223-15.353-11.185-15.353s-11.184,5.829-11.184,15.353,4.223,15.348,11.184,15.348a9.82,9.82,0,0,0,4.386-.922Z" fill="#dfdfdf"/>
  </g>
</svg>
