<svg xmlns="http://www.w3.org/2000/svg" width="130.241" height="91.055" viewBox="0 0 130.241 91.055">
  <g id="그룹_9" data-name="그룹 9" transform="translate(-9.23 -28.543)">
    <g id="L1" transform="translate(9.23 28.543)">
      <path id="패스_9" data-name="패스 9" d="M25.541,121.887a13.832,13.832,0,0,1-3.634,2.2c-.487.244-.712.489-.712.734v.978a2.048,2.048,0,0,1-.9,1.794,3.214,3.214,0,0,1-2.1.692,3.206,3.206,0,0,1-2.024-.611,2.132,2.132,0,0,1-.937-1.875l.038-2.119a3.94,3.94,0,0,1,1.611-3.464,27,27,0,0,1,2.848-1.182c1.011-.366,1.536-.937,1.536-1.751,0-1.549-1.012-2.324-2.96-2.324a3.279,3.279,0,0,0-3.111,2.4,2.956,2.956,0,0,1-2.923,2.119,2.992,2.992,0,0,1-2.136-.855,2.619,2.619,0,0,1-.9-2.037,6.9,6.9,0,0,1,3.111-5.787,9.846,9.846,0,0,1,6-2.038A9.3,9.3,0,0,1,24.566,111a8.085,8.085,0,0,1,2.81,6.44A5.864,5.864,0,0,1,25.541,121.887ZM20.6,134.6a3.322,3.322,0,0,1-2.25.833,3.224,3.224,0,0,1-2.25-.833,2.626,2.626,0,0,1-.917-2.028,2.666,2.666,0,0,1,.917-2.028,3.243,3.243,0,0,1,2.25-.861,3.345,3.345,0,0,1,2.25.861,2.7,2.7,0,0,1,.944,2.028A2.655,2.655,0,0,1,20.6,134.6Z" transform="translate(-9.233 -52.903)" fill="#e6693c"/>
      <path id="패스_10" data-name="패스 10" d="M142.816,35.676a7.509,7.509,0,0,1-1.976,1.2c-.265.132-.387.265-.387.4V37.8a1.111,1.111,0,0,1-.489.974,1.949,1.949,0,0,1-2.24.045,1.16,1.16,0,0,1-.51-1.019l.02-1.152a2.142,2.142,0,0,1,.876-1.883,14.846,14.846,0,0,1,1.548-.642c.55-.2.836-.509.836-.953,0-.842-.55-1.262-1.609-1.262a1.781,1.781,0,0,0-1.691,1.307,1.607,1.607,0,0,1-1.588,1.152,1.626,1.626,0,0,1-1.161-.465,1.42,1.42,0,0,1-.49-1.108,3.754,3.754,0,0,1,1.691-3.145,5.357,5.357,0,0,1,3.259-1.107,5.051,5.051,0,0,1,3.381,1.218,4.393,4.393,0,0,1,1.528,3.5A3.187,3.187,0,0,1,142.816,35.676Zm-2.685,6.91a1.8,1.8,0,0,1-1.223.453,1.749,1.749,0,0,1-1.223-.453,1.428,1.428,0,0,1-.5-1.1,1.449,1.449,0,0,1,.5-1.1,1.762,1.762,0,0,1,1.223-.468,1.816,1.816,0,0,1,1.223.468,1.464,1.464,0,0,1,.513,1.1A1.442,1.442,0,0,1,140.131,42.586Z" transform="translate(-47.104 -28.543)" fill="#e6693c"/>
      <path id="패스_11" data-name="패스 11" d="M153.979,132.608a5.179,5.179,0,0,1-1.352.819c-.182.091-.266.182-.266.272v.364a.763.763,0,0,1-.334.668,1.337,1.337,0,0,1-1.533.03.793.793,0,0,1-.349-.7l.014-.789a1.463,1.463,0,0,1,.6-1.288,9.749,9.749,0,0,1,1.059-.44c.376-.136.572-.349.572-.652,0-.577-.377-.865-1.1-.865a1.219,1.219,0,0,0-1.157.895,1.1,1.1,0,0,1-1.088.788,1.114,1.114,0,0,1-.8-.318.973.973,0,0,1-.334-.758,2.569,2.569,0,0,1,1.157-2.153,3.667,3.667,0,0,1,2.23-.758,3.455,3.455,0,0,1,2.314.834,3,3,0,0,1,1.046,2.4A2.18,2.18,0,0,1,153.979,132.608Zm-1.838,4.73a1.23,1.23,0,0,1-.837.311,1.194,1.194,0,0,1-.836-.311.973.973,0,0,1-.341-.753.989.989,0,0,1,.341-.754,1.206,1.206,0,0,1,.836-.321,1.243,1.243,0,0,1,.837.321,1,1,0,0,1,.352.754A.984.984,0,0,1,152.141,137.338Z" transform="translate(-51.343 -58.661)" fill="#e6693c"/>
      <path id="패스_12" data-name="패스 12" d="M192.641,93.115a5.18,5.18,0,0,1-1.352.819c-.182.091-.266.182-.266.272v.364a.761.761,0,0,1-.334.667,1.335,1.335,0,0,1-1.533.031.793.793,0,0,1-.349-.7l.014-.789a1.465,1.465,0,0,1,.6-1.288,9.728,9.728,0,0,1,1.06-.44c.376-.136.572-.349.572-.652,0-.577-.377-.865-1.1-.865a1.219,1.219,0,0,0-1.157.895,1.1,1.1,0,0,1-1.088.788,1.114,1.114,0,0,1-.8-.318.973.973,0,0,1-.334-.758,2.568,2.568,0,0,1,1.157-2.153,3.668,3.668,0,0,1,2.23-.759,3.451,3.451,0,0,1,2.314.835,3,3,0,0,1,1.046,2.4A2.18,2.18,0,0,1,192.641,93.115Zm-1.838,4.73a1.23,1.23,0,0,1-.837.311,1.194,1.194,0,0,1-.836-.311.974.974,0,0,1-.341-.753.989.989,0,0,1,.341-.754,1.206,1.206,0,0,1,.836-.321,1.243,1.243,0,0,1,.837.321,1,1,0,0,1,.352.754A.985.985,0,0,1,190.8,97.844Z" transform="translate(-63.083 -46.668)" fill="#e6693c"/>
      <path id="패스_13" data-name="패스 13" d="M29.308,90.742a5.187,5.187,0,0,1-1.352.819c-.182.091-.265.182-.265.272V92.2a.761.761,0,0,1-.334.667,1.333,1.333,0,0,1-1.534.031.8.8,0,0,1-.348-.7l.014-.788a1.463,1.463,0,0,1,.6-1.288,9.746,9.746,0,0,1,1.059-.44c.376-.136.572-.349.572-.652,0-.577-.376-.865-1.1-.865a1.22,1.22,0,0,0-1.157.895,1.1,1.1,0,0,1-1.087.788,1.113,1.113,0,0,1-.8-.318.973.973,0,0,1-.334-.758A2.566,2.566,0,0,1,24.4,86.618a3.661,3.661,0,0,1,2.23-.758,3.452,3.452,0,0,1,2.314.834,3,3,0,0,1,1.046,2.4A2.183,2.183,0,0,1,29.308,90.742Zm-1.838,4.73a1.237,1.237,0,0,1-.837.31,1.2,1.2,0,0,1-.837-.31.977.977,0,0,1-.341-.754.989.989,0,0,1,.341-.754,1.207,1.207,0,0,1,.837-.321,1.244,1.244,0,0,1,.837.321,1,1,0,0,1,.352.754A.987.987,0,0,1,27.47,95.472Z" transform="translate(-13.485 -45.948)" fill="#e6693c"/>
      <path id="패스_14" data-name="패스 14" d="M66.006,37.185a4.088,4.088,0,0,1-1.065.646c-.143.071-.21.143-.21.214v.287a.6.6,0,0,1-.263.526,1.054,1.054,0,0,1-1.209.024.628.628,0,0,1-.275-.55L63,37.71a1.155,1.155,0,0,1,.472-1.015,7.829,7.829,0,0,1,.835-.347c.3-.107.451-.275.451-.514,0-.454-.3-.682-.868-.682a.961.961,0,0,0-.912.706.867.867,0,0,1-.857.621.876.876,0,0,1-.627-.251.767.767,0,0,1-.263-.6,2.023,2.023,0,0,1,.912-1.7,2.888,2.888,0,0,1,1.758-.6,2.727,2.727,0,0,1,1.824.657,2.368,2.368,0,0,1,.824,1.888A1.718,1.718,0,0,1,66.006,37.185Zm-1.448,3.728a.974.974,0,0,1-.66.244.945.945,0,0,1-.659-.244.769.769,0,0,1-.269-.595.782.782,0,0,1,.269-.595.952.952,0,0,1,.659-.253.982.982,0,0,1,.66.253.792.792,0,0,1,.277.595A.779.779,0,0,1,64.557,40.913Z" transform="translate(-25.019 -29.998)" fill="#e6693c"/>
      <path id="패스_15" data-name="패스 15" d="M11.767,68.3a2.142,2.142,0,0,1-.565.343c-.076.038-.111.077-.111.114V68.9a.32.32,0,0,1-.14.28.557.557,0,0,1-.641.013.334.334,0,0,1-.146-.292l.006-.33a.613.613,0,0,1,.251-.538,4.027,4.027,0,0,1,.444-.185c.157-.057.239-.146.239-.272,0-.242-.157-.362-.461-.362a.51.51,0,0,0-.484.375.459.459,0,0,1-.455.329.467.467,0,0,1-.333-.133.407.407,0,0,1-.14-.317,1.074,1.074,0,0,1,.484-.9,1.535,1.535,0,0,1,.934-.318,1.445,1.445,0,0,1,.968.349,1.258,1.258,0,0,1,.438,1A.91.91,0,0,1,11.767,68.3ZM11,70.274a.512.512,0,0,1-.35.13.5.5,0,0,1-.35-.13.407.407,0,0,1-.143-.315.413.413,0,0,1,.143-.315.5.5,0,0,1,.35-.134.52.52,0,0,1,.35.134.418.418,0,0,1,.148.315A.412.412,0,0,1,11,70.274Z" transform="translate(-9.23 -39.994)" fill="#e6693c"/>
      <path id="패스_16" data-name="패스 16" d="M51.5,127.07a2.166,2.166,0,0,1-.566.343c-.076.038-.111.076-.111.114v.152a.32.32,0,0,1-.14.279.558.558,0,0,1-.642.013.332.332,0,0,1-.146-.292l.006-.33a.614.614,0,0,1,.251-.539,4.019,4.019,0,0,1,.444-.184c.157-.057.24-.146.24-.273,0-.242-.157-.362-.461-.362a.511.511,0,0,0-.485.375.459.459,0,0,1-.455.33.465.465,0,0,1-.333-.134.406.406,0,0,1-.14-.317,1.074,1.074,0,0,1,.485-.9,1.536,1.536,0,0,1,.933-.318,1.45,1.45,0,0,1,.969.349,1.259,1.259,0,0,1,.437,1A.912.912,0,0,1,51.5,127.07Zm-.769,1.98a.518.518,0,0,1-.35.13.5.5,0,0,1-.35-.13.407.407,0,0,1-.143-.315.414.414,0,0,1,.143-.316.5.5,0,0,1,.35-.134.522.522,0,0,1,.35.134.42.42,0,0,1,.147.316A.412.412,0,0,1,50.731,129.05Z" transform="translate(-21.295 -57.841)" fill="#e6693c"/>
      <path id="패스_17" data-name="패스 17" d="M177.959,57.067a15.879,15.879,0,0,1-4.17,2.525c-.559.281-.818.561-.818.842v1.122a2.35,2.35,0,0,1-1.031,2.058,4.115,4.115,0,0,1-4.73.093,2.446,2.446,0,0,1-1.075-2.151l.043-2.431a4.522,4.522,0,0,1,1.849-3.975,31.088,31.088,0,0,1,3.268-1.356c1.16-.42,1.762-1.075,1.762-2.01,0-1.778-1.161-2.666-3.4-2.666-1.634,0-2.838.934-3.569,2.758a3.392,3.392,0,0,1-3.354,2.432,3.431,3.431,0,0,1-2.45-.982,3,3,0,0,1-1.032-2.338,7.919,7.919,0,0,1,3.569-6.64,11.3,11.3,0,0,1,6.879-2.338,10.661,10.661,0,0,1,7.137,2.572,9.273,9.273,0,0,1,3.225,7.388A6.726,6.726,0,0,1,177.959,57.067Zm-5.668,14.588a3.813,3.813,0,0,1-2.582.956,3.7,3.7,0,0,1-2.581-.956,3.012,3.012,0,0,1-1.051-2.326A3.058,3.058,0,0,1,167.128,67a3.72,3.72,0,0,1,2.581-.988,3.84,3.84,0,0,1,2.582.988,3.1,3.1,0,0,1,1.083,2.326A3.048,3.048,0,0,1,172.291,71.656Z" transform="translate(-54.787 -32.633)" fill="#e6693c"/>
      <path id="패스_18" data-name="패스 18" d="M176.015,114.5a7.926,7.926,0,0,1-2.077,1.258c-.279.139-.407.279-.407.419v.558a1.171,1.171,0,0,1-.514,1.026,2.05,2.05,0,0,1-2.356.046,1.217,1.217,0,0,1-.535-1.072l.021-1.21a2.252,2.252,0,0,1,.921-1.98,15.629,15.629,0,0,1,1.627-.675c.579-.209.879-.535.879-1,0-.885-.579-1.327-1.692-1.327a1.874,1.874,0,0,0-1.778,1.374,1.688,1.688,0,0,1-1.67,1.211,1.713,1.713,0,0,1-1.221-.489,1.5,1.5,0,0,1-.514-1.164,3.946,3.946,0,0,1,1.778-3.308A5.628,5.628,0,0,1,171.9,107a5.311,5.311,0,0,1,3.555,1.281,4.62,4.62,0,0,1,1.606,3.68A3.354,3.354,0,0,1,176.015,114.5Zm-2.824,7.266a1.9,1.9,0,0,1-1.285.476,1.842,1.842,0,0,1-1.286-.476,1.5,1.5,0,0,1-.524-1.159,1.524,1.524,0,0,1,.524-1.159,1.855,1.855,0,0,1,1.286-.492,1.912,1.912,0,0,1,1.285.492,1.541,1.541,0,0,1,.54,1.159A1.517,1.517,0,0,1,173.192,121.765Z" transform="translate(-57.047 -52.367)" fill="#e6693c"/>
      <path id="패스_19" data-name="패스 19" d="M44.05,53.912a9.828,9.828,0,0,1-2.588,1.567c-.347.174-.508.347-.508.522v.7a1.459,1.459,0,0,1-.64,1.277,2.553,2.553,0,0,1-2.935.057,1.515,1.515,0,0,1-.667-1.334l.026-1.509a2.805,2.805,0,0,1,1.147-2.466,19.2,19.2,0,0,1,2.028-.843c.72-.26,1.094-.667,1.094-1.247,0-1.1-.721-1.655-2.108-1.655a2.335,2.335,0,0,0-2.215,1.712A2.1,2.1,0,0,1,34.6,52.2a2.13,2.13,0,0,1-1.521-.61,1.861,1.861,0,0,1-.641-1.451,4.914,4.914,0,0,1,2.214-4.12,7.017,7.017,0,0,1,4.269-1.451,6.616,6.616,0,0,1,4.43,1.6,5.755,5.755,0,0,1,2,4.585A4.173,4.173,0,0,1,44.05,53.912Zm-3.517,9.054a2.364,2.364,0,0,1-1.6.593,2.293,2.293,0,0,1-1.6-.593,1.869,1.869,0,0,1-.653-1.444,1.9,1.9,0,0,1,.653-1.444,2.31,2.31,0,0,1,1.6-.613,2.382,2.382,0,0,1,1.6.613,1.919,1.919,0,0,1,.672,1.444A1.888,1.888,0,0,1,40.532,62.966Z" transform="translate(-16.279 -33.409)" fill="#e6693c"/>
    </g>
    <g id="L3" transform="translate(28.943 28.993)">
      <circle id="타원_2" data-name="타원 2" cx="36.108" cy="36.108" r="36.108" transform="matrix(0.255, -0.967, 0.967, 0.255, 1.262, 72.182)" fill="#c8c8c9" style="mix-blend-mode: multiply;isolation: isolate"/>
      <circle id="타원_3" data-name="타원 3" cx="36.108" cy="36.108" r="36.108" transform="matrix(0.255, -0.967, 0.967, 0.255, 0, 69.826)" fill="#e6693c"/>
      <path id="패스_20" data-name="패스 20" d="M88.987,56.718A25.253,25.253,0,0,0,63.734,81.971c0,4.871,1.7,10.988,5.408,15.157l-1.045,10.1,7.58-3.794A25.253,25.253,0,1,0,88.987,56.718Z" transform="translate(-45.494 -37.548)" fill="#c8c8c9" style="mix-blend-mode: multiply;isolation: isolate"/>
      <path id="패스_21" data-name="패스 21" d="M89.836,56.821a23.663,23.663,0,0,0-20.13,36.1l-2.469,10.136L77.364,100.6A23.664,23.664,0,1,0,89.836,56.821Z" transform="translate(-46.234 -37.579)" fill="#fff"/>
      <g id="그룹_8" data-name="그룹 8" transform="translate(31.139 25.149)">
        <path id="패스_22" data-name="패스 22" d="M104.661,83.34a19.041,19.041,0,0,1-5,3.025c-.67.336-.979.672-.979,1.008v1.344a2.812,2.812,0,0,1-1.236,2.465,4.93,4.93,0,0,1-5.665.112A2.931,2.931,0,0,1,90.5,88.717L90.55,85.8a5.414,5.414,0,0,1,2.214-4.761,37.053,37.053,0,0,1,3.914-1.625c1.39-.5,2.111-1.288,2.111-2.407,0-2.129-1.391-3.193-4.069-3.193-1.957,0-3.4,1.12-4.274,3.3a4.063,4.063,0,0,1-4.017,2.912,4.114,4.114,0,0,1-2.936-1.175,3.6,3.6,0,0,1-1.236-2.8,9.488,9.488,0,0,1,4.275-7.953,13.539,13.539,0,0,1,8.24-2.8,12.768,12.768,0,0,1,8.55,3.081,11.108,11.108,0,0,1,3.863,8.85A8.058,8.058,0,0,1,104.661,83.34Zm-6.789,17.474a4.563,4.563,0,0,1-3.092,1.145,4.426,4.426,0,0,1-3.092-1.145,3.607,3.607,0,0,1-1.26-2.787,3.663,3.663,0,0,1,1.26-2.786,4.457,4.457,0,0,1,3.092-1.184,4.6,4.6,0,0,1,3.092,1.184,3.7,3.7,0,0,1,1.3,2.786A3.646,3.646,0,0,1,97.872,100.814Z" transform="translate(-82.258 -65.305)" fill="#e6693c"/>
      </g>
    </g>
  </g>
</svg>
