<?xml version="1.0" encoding="UTF-8"?><svg id="_迹_1" xmlns="http://www.w3.org/2000/svg" viewBox="0 0 340.14 339.64"><defs><style>.cls-1{fill:#212121;}</style></defs><path class="cls-1" d="M339.64,14.94c-.02-3.98-1.61-7.79-4.44-10.59-2.81-2.79-6.61-4.35-10.56-4.35h-.07l-113,.5c-8.28,.04-14.97,6.78-14.93,15.07,.04,8.26,6.75,14.93,15,14.93h.07l75.84-.34L150.42,169c-5.82,5.89-5.76,15.39,.13,21.21,2.92,2.89,6.73,4.33,10.54,4.33s7.74-1.49,10.67-4.46L309.79,50.33l.35,80.73c.04,8.26,6.74,14.94,15,14.94h.07c8.28-.04,14.97-6.78,14.94-15.06l-.5-116Z"/><path class="cls-1" d="M279.56,178.64h-.06c-8.26,0-14.97,6.68-15,14.94l-.44,116.06H30V75.69l117.94,.44h.06c8.26,0,14.97-6.68,15-14.94,.03-8.28-6.66-15.02-14.94-15.06l-133-.5h-.06c-3.97,0-7.77,1.57-10.59,4.37-2.83,2.81-4.41,6.64-4.41,10.63V324.64c0,8.28,6.72,15,15,15H279c8.26,0,14.97-6.68,15-14.94l.5-131c.03-8.28-6.66-15.03-14.94-15.06Z"/></svg>