<?xml version="1.0" encoding="UTF-8"?><svg xmlns="http://www.w3.org/2000/svg" xmlns:xlink="http://www.w3.org/1999/xlink" viewBox="0 0 330.35 330.35"><defs><style>.cls-1{fill:#fff;}.cls-2{fill:#d4c9c9;}.cls-3{fill:url(#linear-gradient);mix-blend-mode:multiply;}.cls-4{isolation:isolate;}.cls-5{fill:url(#linear-gradient-2);mix-blend-mode:color-burn;opacity:.4;}.cls-6{fill:#524744;}.cls-7{filter:url(#luminosity-noclip-2);}.cls-8{mask:url(#mask-1);}.cls-9{mask:url(#mask);}.cls-10{fill:#5e534e;}</style><filter id="luminosity-noclip-2" x="90.09" y="121.46" width="234.68" height="203.53" color-interpolation-filters="sRGB" filterUnits="userSpaceOnUse"><feFlood flood-color="#fff" result="bg"/><feBlend in="SourceGraphic" in2="bg"/></filter><filter id="luminosity-noclip-3" x="8192.97" y="-9129.93" width="-32766" height="32766" color-interpolation-filters="sRGB" filterUnits="userSpaceOnUse"><feFlood flood-color="#fff" result="bg"/><feBlend in="SourceGraphic" in2="bg"/></filter><mask id="mask-1" x="8192.97" y="-9129.93" width="-32766" height="32766" maskUnits="userSpaceOnUse"/><linearGradient id="linear-gradient" x1="-112.6" y1="-472.89" x2="46.24" y2="-472.89" gradientTransform="translate(119.49 376.59) rotate(45) scale(1 .38)" gradientUnits="userSpaceOnUse"><stop offset="0" stop-color="#fff"/><stop offset=".7" stop-color="#494949"/><stop offset="1" stop-color="#000"/></linearGradient><mask id="mask" x="90.09" y="121.46" width="234.68" height="203.53" maskUnits="userSpaceOnUse"><g class="cls-7"><g class="cls-8"><path class="cls-3" d="M324.76,207.82l-86.36-86.36L90.09,208.04l116.95,116.95c57.32-14.97,102.48-59.96,117.73-117.17Z"/></g></g></mask><linearGradient id="linear-gradient-2" x1="-112.6" y1="-472.89" x2="46.24" y2="-472.89" gradientTransform="translate(119.49 376.59) rotate(45) scale(1 .38)" gradientUnits="userSpaceOnUse"><stop offset="0" stop-color="#a19494"/><stop offset="1" stop-color="#a19494"/></linearGradient></defs><g class="cls-4"><g id="_레이어_2"><g id="_레이어_1-2"><g><circle class="cls-2" cx="165.17" cy="165.17" r="165.17"/><g class="cls-9"><path class="cls-5" d="M324.76,207.82l-86.36-86.36L90.09,208.04l116.95,116.95c57.32-14.97,102.48-59.96,117.73-117.17Z"/></g><g><g><path class="cls-6" d="M222.44,108.54c-9.05-4.79-19.36-7.51-30.32-7.51h-54.56c-35.85,0-64.92,29.07-64.92,64.92s29.06,64.91,64.92,64.91h54.56c35.85,0,64.92-29.06,64.92-64.91,0-24.9-14.03-46.51-34.6-57.41Z"/><g><path class="cls-10" d="M192.12,101.03h-54.56c-35.85,0-64.92,29.07-64.92,64.92s29.06,64.91,64.92,64.91h.42l84.45-122.32c-9.05-4.79-19.36-7.51-30.32-7.51Z"/><path class="cls-6" d="M222.44,108.54l-84.45,122.32h54.13c35.85,0,64.92-29.06,64.92-64.91,0-24.9-14.03-46.51-34.6-57.41Z"/></g></g><polygon class="cls-6" points="186.98 216.18 189.92 258.41 240.94 208.74 186.98 216.18"/><g><path class="cls-1" d="M148.08,164.21c0,7.87-3.43,12.58-9.1,14.25l10.07,2.29-1.19,4.7-18.07-5.23c-6.73-1.93-10.82-6.5-10.82-15.87v-1.02c0-10.33,5.94-16.05,14.69-16.05s14.42,5.32,14.42,15.96v.97Zm-6.15,.79v-1.63c0-7.21-2.33-11.56-8.53-11.61-5.58,0-8.31,4.4-8.31,10.91v1.63c0,7.3,2.33,11.74,8.49,11.74,5.63,0,8.36-4.48,8.36-11.04Z"/><path class="cls-1" d="M151.77,171.11c0-4.71,2.9-7.52,6.99-9.41-1.85-2.29-2.68-4.35-2.68-6.6,0-5.23,4.09-7.83,8.97-7.83s8.44,2.73,8.44,7.08-3.21,6.6-7.17,8.44l6.38,7.61c.79-1.76,1.36-3.91,1.63-6.25h4.66c-.35,3.69-1.54,7.08-3.43,9.77l5.02,5.93h-6.64l-1.93-2.28c-2.38,1.76-5.33,2.81-8.58,2.81-7.34,0-11.65-3.25-11.65-9.27Zm17.63,3.39l-8.22-9.81c-2.2,1.28-3.83,2.9-3.83,5.76,0,3.52,2.11,5.85,6.42,5.85,2.2,0,4.09-.66,5.63-1.8Zm-5.76-14.95l.4,.53c2.24-1.23,4.35-2.86,4.35-5.49,0-2.16-1.41-3.52-3.3-3.52-2.02,0-3.56,1.19-3.56,3.69,0,1.71,.75,3.17,2.11,4.79Z"/><path class="cls-1" d="M193.44,147.8h5.89l11.39,32.06h-5.93l-2.91-8.13h-11.92l-2.9,8.13h-5.33l11.7-32.06Zm-2.11,19.61h9.1l-4.48-12.8h-.14l-4.48,12.8Z"/></g></g></g></g></g></g></svg>