<?xml version="1.0" encoding="UTF-8"?><svg id="_레이어_2" xmlns="http://www.w3.org/2000/svg" viewBox="0 0 183.6 183.6"><defs><style>.cls-1{fill:#f0f0f0;}.cls-2{fill:#fff;}.cls-3{fill:#0b9e85;}.cls-4{fill:#242b36;}.cls-5{opacity:.8;}.cls-6{fill:#6bd1bd;}.cls-7{fill:#394454;}</style></defs><g id="_레이어_1-2"><g><circle class="cls-6" cx="91.8" cy="91.8" r="91.8"/><g class="cls-5"><path class="cls-3" d="M181.63,110.77l-58.06-58.06L50.45,127.58l55,55c37.98-5.66,68.36-34.59,76.18-71.82Z"/></g><g><circle class="cls-7" cx="88.67" cy="91.8" r="52.52"/><circle class="cls-2" cx="88.67" cy="91.8" r="40.08"/><path class="cls-4" d="M147.45,142.43l-12.1-26.57c3.72-7.21,5.84-15.38,5.84-24.06,0-28.91-23.35-52.35-52.22-52.51v105.02c11.94-.07,22.93-4.12,31.72-10.89l26.77,9.01Z"/><path class="cls-1" d="M128.75,91.8c0-22.04-17.78-39.91-39.78-40.07v80.14c22-.16,39.78-18.04,39.78-40.07Z"/><path class="cls-4" d="M84.25,94.48c0-3.85,1.9-5.8,5.58-8.8,2.32-1.95,3.58-3.06,3.58-5.85,0-3.21-1.84-4.37-5.27-4.37-2.42,0-5.58,1.37-7.27,2.58l-2.16-5.95c2.48-1.53,6.48-2.79,10.43-2.79,6.58,0,12.48,2.84,12.48,9.9,0,5.22-2.16,7.48-6,10.27-3.06,2.11-4.43,4-4.43,5.95v4.11h-6.95v-5.06Zm-.68,10.17h8.48v8.06h-8.48v-8.06Z"/></g></g></g></svg>