<svg xmlns="http://www.w3.org/2000/svg" width="21.791" height="23.078" viewBox="0 0 21.791 23.078">
  <g id="그룹_857" data-name="그룹 857" transform="translate(-2226.75 -3775.772)">
    <path id="패스_3244" data-name="패스 3244" d="M229.3,79.656a5.016,5.016,0,0,0-2.248,2.065c-.567.934-.789,2.029-1.364,2.956a7.82,7.82,0,0,1-1.881,2.132c-.415.309-.646.747.148.582a8.556,8.556,0,0,1,2.627-.146,23.359,23.359,0,0,1,3.2.8,3.727,3.727,0,0,0,3.962-.652,5.215,5.215,0,0,0-.183-6.752,3.9,3.9,0,0,0-4.266-.98" transform="translate(2355.672 4003.274) rotate(-140)" fill="#6dad19" fill-rule="evenodd"/>
    <path id="패스_3243" data-name="패스 3243" d="M229.868,120.864c-3.425-.535-5.106,2.069-10.145-1.4-.448-.308-.824-.563-.494.455.541,1.658,2.945,8.317,7.6,9.5,6.82,1.732,8.626-7.522,3.036-8.553" transform="translate(2333.058 4024.962) rotate(-140)" fill="#0082cc" fill-rule="evenodd"/>
  </g>
</svg>
