<svg xmlns="http://www.w3.org/2000/svg" width="15.2" height="15" viewBox="0 0 15.2 15">
  <g id="Icon_ionic-ios-arrow-dropright" data-name="Icon ionic-ios-arrow-dropright" transform="translate(-3.375 -3.375)">
    <path id="패스_39" data-name="패스 39" d="M14.606,10.2a.6.6,0,0,1,.919,0l3.211,3.64a.8.8,0,0,1,.02,1.012l-3.163,3.587a.6.6,0,0,1-.919,0,.8.8,0,0,1,0-1.038l2.689-3.085-2.756-3.085A.794.794,0,0,1,14.606,10.2Z" transform="translate(-5.087 -3.445)" fill="#fff"/>
    <path id="패스_40" data-name="패스 40" d="M3.375,10.875a7.6,7.6,0,1,0,7.6-7.5A7.549,7.549,0,0,0,3.375,10.875Zm1.169,0A6.25,6.25,0,0,1,6.43,6.389a6.483,6.483,0,0,1,9.091,0,6.278,6.278,0,0,1,0,8.971,6.483,6.483,0,0,1-9.091,0A6.25,6.25,0,0,1,4.544,10.875Z" transform="translate(0)" fill="#fff"/>
  </g>
</svg>
