<svg xmlns="http://www.w3.org/2000/svg" width="15" height="15" viewBox="0 0 15 15">
  <g id="Icon_ionic-ios-arrow-dropleft" data-name="Icon ionic-ios-arrow-dropleft" transform="translate(-3.375 -3.375)">
    <path id="패스_41" data-name="패스 41" d="M16.789,10.185a.7.7,0,0,0-.984,0l-3.44,3.451a.7.7,0,0,0-.022.959L15.733,18a.695.695,0,1,0,.984-.981L13.84,14.094l2.953-2.924A.7.7,0,0,0,16.789,10.185Z" transform="translate(-4.281 -3.219)" fill="#fff"/>
    <path id="패스_42" data-name="패스 42" d="M10.875,3.375a7.5,7.5,0,1,0,7.5,7.5A7.5,7.5,0,0,0,10.875,3.375ZM15.36,15.36A6.343,6.343,0,1,1,6.389,6.389,6.343,6.343,0,1,1,15.36,15.36Z" transform="translate(0 0)" fill="#fff"/>
  </g>
</svg>
