<svg xmlns="http://www.w3.org/2000/svg" width="156" height="32" viewBox="0 0 156 32">
  <g id="그룹_41" data-name="그룹 41" transform="translate(-819 -332)">
    <g id="그룹_38" data-name="그룹 38" transform="translate(756 -341)">
      <g id="그룹_36" data-name="그룹 36" transform="translate(63 672)">
        <g id="그룹_35" data-name="그룹 35">
          <g id="그룹_27" data-name="그룹 27">
            <rect id="사각형_13" data-name="사각형 13" width="156" height="32" transform="translate(0 1)" fill="#fff"/>
            <text id="PORTFOLIO" transform="translate(38 23)" fill="#1b5fe9" font-size="20.5" font-family="TTGulimH, '\32 10 Gulim \30 90'"><tspan x="0" y="0">PORT</tspan><tspan y="0" fill="#051121">FOLIO</tspan></text>
            <g id="그룹_18" data-name="그룹 18" transform="translate(0 1.257)">
              <path id="패스_39" data-name="패스 39" d="M427.429,517.8h-6.017l.052-15.042,5.918,2.485Z" transform="translate(-398.311 -492.392)" fill="#6ad94f"/>
              <path id="패스_40" data-name="패스 40" d="M408.6,505.242l-14.529,6.1h-.012l-14.529-6.1,5.918-2.485,8.617,3.618,8.617-3.618Z" transform="translate(-379.526 -492.392)" fill="#3434ff"/>
              <path id="패스_41" data-name="패스 41" d="M385.543,513.77h-6.017v-8.528l5.918-2.485Z" transform="translate(-379.526 -492.392)" fill="#db3ccb"/>
              <path id="패스_42" data-name="패스 42" d="M408.6,490.064l-14.529-6.1h-.012l-14.529,6.1v5.047l5.918-2.562,8.617-3.618,8.616,3.617h0l5.918,2.562v-5.046Z" transform="translate(-379.525 -483.964)" fill="#ff9e00"/>
              <path id="패스_43" data-name="패스 43" d="M408.584,528.433h.008v-2.48h-5.914l-8.617,3.618-8.617-3.618h0l-5.914,2.48h.012l-.012.005,14.529,6.1h.012l14.529-6.1Z" transform="translate(-379.525 -502.796)" fill="#6ad94f"/>
            </g>
          </g>
        </g>
      </g>
    </g>
  </g>
</svg>
