<svg xmlns="http://www.w3.org/2000/svg" width="29.118" height="31.742" viewBox="0 0 29.118 31.742">
  <g id="그룹_42" data-name="그룹 42" transform="translate(-839 -471.257)">
    <path id="패스_39" data-name="패스 39" d="M427.429,517.8h-6.017l.052-15.042,5.918,2.485Z" transform="translate(440.689 -21.135)" fill="#6ad94f"/>
    <path id="패스_40" data-name="패스 40" d="M408.6,505.242l-14.529,6.1h-.012l-14.529-6.1,5.918-2.485,8.617,3.618,8.617-3.618Z" transform="translate(459.474 -21.135)" fill="#3434ff"/>
    <path id="패스_41" data-name="패스 41" d="M385.543,513.77h-6.017v-8.528l5.918-2.485Z" transform="translate(459.474 -21.135)" fill="#db3ccb"/>
    <path id="패스_42" data-name="패스 42" d="M408.6,490.064l-14.529-6.1h-.012l-14.529,6.1v5.047l5.918-2.562,8.617-3.618,8.616,3.617h0l5.918,2.562v-5.046Z" transform="translate(459.475 -12.707)" fill="#ff9e00"/>
    <path id="패스_43" data-name="패스 43" d="M408.584,528.433h.008v-2.48h-5.914l-8.617,3.618-8.617-3.618h0l-5.914,2.48h.012l-.012.005,14.529,6.1h.012l14.529-6.1Z" transform="translate(459.475 -31.539)" fill="#6ad94f"/>
  </g>
</svg>
