<svg xmlns="http://www.w3.org/2000/svg" width="32.24" height="32.24" viewBox="0 0 32.24 32.24">
  <g id="Icon_ionic-logo-instagram" data-name="Icon ionic-logo-instagram" transform="translate(-4.5 -4.5)">
    <path id="패스_1" data-name="패스 1" d="M27.337,7.187A6.737,6.737,0,0,1,34.054,13.9V27.337a6.737,6.737,0,0,1-6.717,6.717H13.9a6.737,6.737,0,0,1-6.717-6.717V13.9A6.737,6.737,0,0,1,13.9,7.187H27.337m0-2.687H13.9a9.431,9.431,0,0,0-9.4,9.4V27.337a9.431,9.431,0,0,0,9.4,9.4H27.337a9.431,9.431,0,0,0,9.4-9.4V13.9a9.431,9.431,0,0,0-9.4-9.4Z" transform="translate(0 0)" fill="#ca416e"/>
    <path id="패스_2" data-name="패스 2" d="M25.64,13.03a2.015,2.015,0,1,1,2.015-2.015A2.01,2.01,0,0,1,25.64,13.03Z" transform="translate(3.712 0.873)" fill="#ca416e"/>
    <path id="패스_3" data-name="패스 3" d="M19.31,13.937a5.373,5.373,0,1,1-5.373,5.373,5.378,5.378,0,0,1,5.373-5.373m0-2.687a8.06,8.06,0,1,0,8.06,8.06,8.062,8.062,0,0,0-8.06-8.06Z" transform="translate(1.31 1.31)" fill="#ca416e"/>
  </g>
</svg>
