<svg xmlns="http://www.w3.org/2000/svg" width="16.411" height="24.5" viewBox="0 0 16.411 24.5">
  <path id="Icon_awesome-grip-lines-vertical" data-name="Icon awesome-grip-lines-vertical" d="M7.387,22.766V.734C7.387.33,6.809,0,6.1,0H3.534C2.828,0,2.25.33,2.25.734V22.766c0,.4.578.734,1.284.734H6.1C6.809,23.5,7.387,23.17,7.387,22.766Zm10.274,0V.734c0-.4-.578-.734-1.284-.734H13.808c-.706,0-1.284.33-1.284.734V22.766c0,.4.578.734,1.284.734h2.569C17.083,23.5,17.661,23.17,17.661,22.766Z" transform="translate(-1.75 0.5)" fill="none" stroke="#aaa" stroke-width="1"/>
</svg>
