<svg id="그룹_6" data-name="그룹 6" xmlns="http://www.w3.org/2000/svg" xmlns:xlink="http://www.w3.org/1999/xlink" width="41" height="46.623" viewBox="0 0 41 46.623">
  <defs>
    <clipPath id="clip-path">
      <rect id="사각형_42" data-name="사각형 42" width="41" height="46.623" fill="none"/>
    </clipPath>
  </defs>
  <rect id="사각형_29" data-name="사각형 29" width="27.28" height="1.622" transform="translate(9.549 5.599)" fill="#1a1311"/>
  <rect id="사각형_30" data-name="사각형 30" width="7.774" height="1.622" transform="translate(9.549 10.11)" fill="#1a1311"/>
  <rect id="사각형_31" data-name="사각형 31" width="7.774" height="1.622" transform="translate(29.056 10.11)" fill="#1a1311"/>
  <rect id="사각형_32" data-name="사각형 32" width="7.774" height="1.622" transform="translate(19.302 10.11)" fill="#1a1311"/>
  <rect id="사각형_33" data-name="사각형 33" width="7.774" height="1.622" transform="translate(9.549 13.094)" fill="#1a1311"/>
  <rect id="사각형_34" data-name="사각형 34" width="7.774" height="1.622" transform="translate(29.056 13.094)" fill="#1a1311"/>
  <rect id="사각형_35" data-name="사각형 35" width="7.774" height="1.622" transform="translate(19.302 13.094)" fill="#1a1311"/>
  <rect id="사각형_36" data-name="사각형 36" width="7.774" height="1.622" transform="translate(9.549 16.078)" fill="#1a1311"/>
  <rect id="사각형_37" data-name="사각형 37" width="7.774" height="1.622" transform="translate(29.056 16.078)" fill="#1a1311"/>
  <rect id="사각형_38" data-name="사각형 38" width="7.774" height="1.622" transform="translate(19.302 16.078)" fill="#1a1311"/>
  <g id="그룹_5" data-name="그룹 5">
    <g id="그룹_4" data-name="그룹 4" clip-path="url(#clip-path)">
      <path id="패스_3" data-name="패스 3" d="M5.151,0V3.447H0V21.453L0,21.5c.61,2.69,4.343,2.715,4.422,2.715h11.13V23.7H4.422c-.178,0-3.243-.034-3.77-2.274V3.955H5.8V.508H40.348V21.156l-.006.1A2.691,2.691,0,0,1,37.528,23.7H20.95v.508H37.571a3.315,3.315,0,0,0,3.391-2.678H41V0Z" fill="#1a1311"/>
      <path id="패스_4" data-name="패스 4" d="M75.351,194.37l.81.048c.019-.09.228-.865,1.76-.865h.144l.029,0a2.972,2.972,0,0,1,1.611.336,1.163,1.163,0,0,1,.511.976l.031.832.758-.73c.013-.024.325-.588,1.837-.588h.035a3.585,3.585,0,0,1,1.925.377.792.792,0,0,1,.351.686l.006.579.628-.315a5.132,5.132,0,0,1,2.045-.293,2.439,2.439,0,0,1,2.186,2.157V207.94a5.2,5.2,0,0,1-5.189,4.65H75.258c-.272,0-6.674-.083-8.036-5.861l-.412-8.758a4.875,4.875,0,0,1,2.674.961,3.671,3.671,0,0,1,1.289,2.335v2.089l.813.032a7.55,7.55,0,0,0,0-2.157V190.813h-.815v8.407a4.1,4.1,0,0,0-.71-.735,5.991,5.991,0,0,0-3.7-1.158l-.4.02.444,9.429.006.045a7.83,7.83,0,0,0,4.973,5.6,11.532,11.532,0,0,0,3.87.8h9.618a5.974,5.974,0,0,0,5.955-5.254V197.55l0-.038a3.23,3.23,0,0,0-2.953-2.734h-.027a8.044,8.044,0,0,0-1.955.2,1.42,1.42,0,0,0-.543-.7,4.572,4.572,0,0,0-2.525-.541,4,4,0,0,0-1.946.411,1.741,1.741,0,0,0-.641-.746,3.874,3.874,0,0,0-2.2-.49,3.531,3.531,0,0,0-1.868.4v-2.509h-.815Z" transform="translate(-55.216 -166.601)" fill="#1a1311"/>
      <path id="패스_5" data-name="패스 5" d="M96.283,147.368c0-.049.078-1.192,1.954-1.192h.032a1.976,1.976,0,0,1,1.152.335,1.819,1.819,0,0,1,.626,1.621v2.646h.815v-2.639a2.341,2.341,0,0,0-.892-2.1,2.95,2.95,0,0,0-1.747-.5c-2.111,0-2.725,1.181-2.755,1.815v3.421h.814Z" transform="translate(-79.912 -127.073)" fill="#1a1311"/>
      <rect id="사각형_39" data-name="사각형 39" width="0.815" height="0.508" transform="translate(20.135 23.705)" fill="#1a1311"/>
      <rect id="사각형_40" data-name="사각형 40" width="0.815" height="0.508" transform="translate(15.557 23.705)" fill="#1a1311"/>
      <rect id="사각형_41" data-name="사각형 41" width="0.652" height="15.084" transform="translate(5.151 3.701)" fill="#1a1311"/>
    </g>
  </g>
</svg>
