<svg id="Layer_2_1_" xmlns="http://www.w3.org/2000/svg" width="51.774" height="50.48" viewBox="0 0 51.774 50.48">
  <g id="Surfaces">
    <g id="Drawing_Surface">
      <g id="Outline_no_shadow">
        <path id="패스_50" data-name="패스 50" d="M9.168,0H42.606a9.161,9.161,0,0,1,9.168,9.168V41.312a9.161,9.161,0,0,1-9.168,9.168H9.168A9.161,9.161,0,0,1,0,41.312V9.168A9.161,9.161,0,0,1,9.168,0Z" fill="#300"/>
      </g>
    </g>
  </g>
  <g id="Outlined_Mnemonics_Logos" transform="translate(10.698 11.196)">
    <g id="Ai">
      <path id="패스_51" data-name="패스 51" d="M63.981,77.266H55.956l-1.64,5.07a.378.378,0,0,1-.41.3H49.851c-.237,0-.3-.129-.237-.388l6.946-20c.065-.216.129-.453.216-.712a7.535,7.535,0,0,0,.129-1.4.214.214,0,0,1,.173-.237h5.587c.173,0,.259.065.28.173l7.874,22.22c.065.237,0,.345-.216.345H66.1a.326.326,0,0,1-.345-.237Zm-6.774-4.379h5.479c-.129-.453-.3-.992-.5-1.553-.194-.582-.388-1.208-.582-1.855-.216-.669-.41-1.316-.626-1.985s-.41-1.294-.582-1.92c-.173-.6-.324-1.165-.475-1.683h-.043a26.488,26.488,0,0,1-.733,2.783c-.324,1.035-.647,2.114-.992,3.193-.3,1.1-.626,2.114-.949,3.02Z" transform="translate(-49.59 -58.174)" fill="#ff9a00"/>
      <path id="패스_52" data-name="패스 52" d="M160.149,57.315a2.67,2.67,0,0,1-1.92-.755,2.8,2.8,0,0,1-.733-1.985,2.538,2.538,0,0,1,.777-1.92,2.763,2.763,0,0,1,1.92-.755,2.583,2.583,0,0,1,1.963.755,2.966,2.966,0,0,1-.043,3.9A2.537,2.537,0,0,1,160.149,57.315ZM157.733,76.04V59.429c0-.216.086-.3.28-.3h4.271c.194,0,.28.108.28.3V76.04c0,.237-.086.345-.28.345h-4.228A.3.3,0,0,1,157.733,76.04Z" transform="translate(-134.216 -51.9)" fill="#ff9a00"/>
    </g>
  </g>
</svg>
