<svg id="Layer_2_1_" xmlns="http://www.w3.org/2000/svg" width="51.774" height="50.48" viewBox="0 0 51.774 50.48">
  <g id="Surfaces">
    <g id="Photo_Surface">
      <g id="Outline_no_shadow">
        <path id="패스_47" data-name="패스 47" d="M9.168,0H42.606a9.161,9.161,0,0,1,9.168,9.168V41.312a9.161,9.161,0,0,1-9.168,9.168H9.168A9.161,9.161,0,0,1,0,41.312V9.168A9.161,9.161,0,0,1,9.168,0Z" fill="#001e36"/>
      </g>
    </g>
  </g>
  <g id="Outlined_Mnemonics_Logos" transform="translate(11.649 12.836)">
    <g id="Ps">
      <path id="패스_48" data-name="패스 48" d="M54,82.065v-22.2c0-.151.065-.237.216-.237.367,0,.712,0,1.208-.022.518-.022,1.057-.022,1.64-.043s1.208-.022,1.877-.043S60.256,59.5,60.9,59.5a12.685,12.685,0,0,1,4.444.669,7.7,7.7,0,0,1,2.891,1.769A6.869,6.869,0,0,1,69.813,64.4a8.257,8.257,0,0,1,.5,2.8A7.712,7.712,0,0,1,69.015,71.8a7.391,7.391,0,0,1-3.473,2.632,13.981,13.981,0,0,1-4.854.733c-.518,0-.863,0-1.079-.022s-.518-.022-.928-.022v6.925a.268.268,0,0,1-.237.3H54.259C54.086,82.345,54,82.259,54,82.065Zm4.7-18.272v7.248c.3.022.582.043.841.043h1.143a8.058,8.058,0,0,0,2.481-.388,3.71,3.71,0,0,0,1.769-1.143,3.334,3.334,0,0,0,.669-2.222,3.551,3.551,0,0,0-.5-1.92,3.128,3.128,0,0,0-1.51-1.23,6.33,6.33,0,0,0-2.546-.431c-.561,0-1.057,0-1.467.022a4.939,4.939,0,0,0-.884.022Z" transform="translate(-54 -59.5)" fill="#31a8ff"/>
      <path id="패스_49" data-name="패스 49" d="M151.443,89.175a7.636,7.636,0,0,0-2.071-.733,11.372,11.372,0,0,0-2.416-.28,4.343,4.343,0,0,0-1.294.151,1.108,1.108,0,0,0-.669.431,1.143,1.143,0,0,0-.173.582.96.96,0,0,0,.216.561,2.434,2.434,0,0,0,.733.582c.5.259,1.014.5,1.532.712a15.625,15.625,0,0,1,3.322,1.575,5.02,5.02,0,0,1,1.7,1.791,4.657,4.657,0,0,1,.5,2.222,5.019,5.019,0,0,1-.841,2.869,5.406,5.406,0,0,1-2.416,1.92,9.884,9.884,0,0,1-3.9.69,14.86,14.86,0,0,1-2.934-.28,8.7,8.7,0,0,1-2.2-.69.424.424,0,0,1-.237-.41V97.114a.234.234,0,0,1,.086-.194.164.164,0,0,1,.194.022A9.235,9.235,0,0,0,143.245,98a10.043,10.043,0,0,0,2.546.324,4.118,4.118,0,0,0,1.791-.3,1,1,0,0,0,.582-.906,1.143,1.143,0,0,0-.518-.863,9.15,9.15,0,0,0-2.114-1.014,13.2,13.2,0,0,1-3.063-1.553,5.585,5.585,0,0,1-1.64-1.834,4.629,4.629,0,0,1-.5-2.2,5.074,5.074,0,0,1,.733-2.61,5.318,5.318,0,0,1,2.265-1.985,8.365,8.365,0,0,1,3.818-.755,18.6,18.6,0,0,1,2.675.194,7.592,7.592,0,0,1,1.855.5.379.379,0,0,1,.216.194,1.083,1.083,0,0,1,.043.259V88.96a.265.265,0,0,1-.108.216A.575.575,0,0,1,151.443,89.175Z" transform="translate(-121.673 -78.95)" fill="#31a8ff"/>
    </g>
  </g>
</svg>
