<svg id="Layer_2_1_" xmlns="http://www.w3.org/2000/svg" width="51.774" height="50.48" viewBox="0 0 51.774 50.48">
  <g id="Surfaces">
    <g id="Video_Audio_Surface">
      <g id="Outline_no_shadow">
        <path id="패스_44" data-name="패스 44" d="M9.168,0H42.606a9.161,9.161,0,0,1,9.168,9.168V41.312a9.161,9.161,0,0,1-9.168,9.168H9.168A9.161,9.161,0,0,1,0,41.312V9.168A9.161,9.161,0,0,1,9.168,0Z" fill="#00005b"/>
      </g>
    </g>
  </g>
  <g id="Outlined_Mnemonics_Logos" transform="translate(12.296 12.836)">
    <g id="Pr">
      <path id="패스_45" data-name="패스 45" d="M57,82.065v-22.2c0-.151.065-.237.216-.237.367,0,.712,0,1.208-.022.518-.022,1.057-.022,1.64-.043s1.208-.022,1.877-.043S63.256,59.5,63.9,59.5a12.685,12.685,0,0,1,4.444.669,7.7,7.7,0,0,1,2.891,1.769A6.869,6.869,0,0,1,72.813,64.4a8.257,8.257,0,0,1,.5,2.8A7.712,7.712,0,0,1,72.015,71.8a7.391,7.391,0,0,1-3.473,2.632,13.981,13.981,0,0,1-4.854.733c-.518,0-.863,0-1.079-.022s-.518-.022-.928-.022v6.925a.268.268,0,0,1-.237.3H57.259C57.086,82.345,57,82.259,57,82.065Zm4.7-18.272v7.248c.3.022.582.043.841.043h1.143a8.058,8.058,0,0,0,2.481-.388,3.71,3.71,0,0,0,1.769-1.143,3.333,3.333,0,0,0,.669-2.222,3.551,3.551,0,0,0-.5-1.92,3.128,3.128,0,0,0-1.51-1.23,6.33,6.33,0,0,0-2.546-.431c-.561,0-1.057,0-1.467.022a4.94,4.94,0,0,0-.884.022Z" transform="translate(-57 -59.5)" fill="#99f"/>
      <path id="패스_46" data-name="패스 46" d="M145.8,83.857h3.775a.486.486,0,0,1,.453.345,2.19,2.19,0,0,1,.129.539c.043.216.086.453.108.669.022.237.043.5.043.777a8.029,8.029,0,0,1,2.308-1.855,6.686,6.686,0,0,1,3.279-.841.268.268,0,0,1,.3.237V88.02c0,.173-.108.237-.345.237a9.38,9.38,0,0,0-2.33.216,8.878,8.878,0,0,0-1.812.582,3.353,3.353,0,0,0-1.1.8v11c0,.216-.086.3-.28.3h-4.25a.3.3,0,0,1-.345-.259V88.862c0-.518,0-1.057-.022-1.618s-.022-1.122-.043-1.683c0-.5-.043-.971-.086-1.467a.2.2,0,0,1,.151-.237c0-.022.043-.022.065,0Z" transform="translate(-126.472 -78.313)" fill="#99f"/>
    </g>
  </g>
</svg>
