<svg xmlns="http://www.w3.org/2000/svg" width="51.774" height="50.48" viewBox="0 0 51.774 50.48">
  <g id="visual" transform="translate(-1026 -1028)">
    <g id="Layer_2_1_" transform="translate(1026 1028)">
      <g id="Surfaces">
        <g id="Drawing_Surface">
          <g id="Outline_no_shadow">
            <path id="패스_50" data-name="패스 50" d="M9.168,0H42.606a9.161,9.161,0,0,1,9.168,9.168V41.312a9.161,9.161,0,0,1-9.168,9.168H9.168A9.161,9.161,0,0,1,0,41.312V9.168A9.161,9.161,0,0,1,9.168,0Z" fill="#212121"/>
          </g>
        </g>
      </g>
    </g>
    <g id="Visual-Studio-Code" transform="translate(867.123 879.374)">
      <path id="패스_704" data-name="패스 704" d="M167.475,671.788s-.845-.609.169-1.422l2.362-2.112a1,1,0,0,1,1.391-.092l21.8,16.5v7.913s-.011,1.242-1.6,1.106Z" transform="translate(0 -502.908)" fill="#2489ca"/>
      <path id="패스_705" data-name="패스 705" d="M177.651,1235.5l-5.617,5.107s-.577.429,0,1.2l2.609,2.372a1.073,1.073,0,0,0,1.535-.092l5.956-4.516Z" transform="translate(-4.559 -1061.52)" fill="#1070b3"/>
      <path id="패스_706" data-name="패스 706" d="M831.583,191.929l10.3-7.867-.066-7.872s-.44-1.718-1.908-.824L826.2,187.846Z" transform="translate(-648.627 -17.906)" fill="#0877b9"/>
      <path id="패스_707" data-name="패스 707" d="M1693.1,190.785a1.418,1.418,0,0,0,1.324.411l8.03-3.957a1.69,1.69,0,0,0,.883-1.57V162.044a1.58,1.58,0,0,0-1.063-1.4l-6.959-3.354a1.933,1.933,0,0,0-2.517.169s1.282-.922,1.908.824v31.24a1.413,1.413,0,0,1-.138.615c-.184.37-.581.715-1.535.57Z" transform="translate(-1501.515)" fill="#3c99d4"/>
    </g>
  </g>
</svg>
