<svg id="Layer_2_1_" xmlns="http://www.w3.org/2000/svg" width="51.774" height="50.48" viewBox="0 0 51.774 50.48">
  <g id="Surfaces">
    <g id="UI_UX_Surface">
      <g id="Outline_no_shadow">
        <path id="패스_53" data-name="패스 53" d="M9.168,0H42.606a9.161,9.161,0,0,1,9.168,9.168V41.312a9.161,9.161,0,0,1-9.168,9.168H9.168A9.161,9.161,0,0,1,0,41.312V9.168A9.161,9.161,0,0,1,9.168,0Z" fill="#470137"/>
      </g>
    </g>
  </g>
  <g id="Outlined_Mnemonics_Logos" transform="translate(7.542 11.063)">
    <g id="Xd">
      <path id="패스_54" data-name="패스 54" d="M54.644,60.324,48.172,71l6.9,11.326a.371.371,0,0,1,.043.259c-.022.086-.108.022-.237.043h-4.94c-.345,0-.582-.022-.733-.237-.453-.906-.928-1.791-1.381-2.7-.453-.884-.949-1.791-1.467-2.718s-1.035-1.855-1.553-2.8h-.043c-.453.928-.949,1.855-1.445,2.783s-.992,1.855-1.467,2.761c-.5.906-.992,1.834-1.489,2.718-.086.216-.259.237-.5.237H35.12c-.086,0-.151.043-.151-.065a.3.3,0,0,1,.043-.237l6.709-11L35.185,60.3c-.065-.086-.086-.173-.043-.216A.25.25,0,0,1,35.358,60h4.9a1.273,1.273,0,0,1,.3.043.612.612,0,0,1,.216.194c.41.928.884,1.855,1.381,2.783.518.928,1.014,1.834,1.553,2.74.518.906.992,1.812,1.445,2.74h.043c.453-.949.928-1.877,1.4-2.783S47.568,63.9,48.064,63s.971-1.834,1.445-2.718a.367.367,0,0,1,.129-.216.411.411,0,0,1,.28-.043h4.552a.2.2,0,0,1,.237.151c.022.022-.022.108-.065.151Z" transform="translate(-34.961 -58.12)" fill="#ff61f6"/>
      <path id="패스_55" data-name="패스 55" d="M139.379,76.247a10.725,10.725,0,0,1-4.638-.971,7.521,7.521,0,0,1-3.258-2.934,9.334,9.334,0,0,1-1.186-4.919,8.86,8.86,0,0,1,1.186-4.552,8.959,8.959,0,0,1,3.43-3.344,11.035,11.035,0,0,1,5.458-1.251,3.852,3.852,0,0,1,.453.022c.194.022.41.022.669.043V51.525c0-.151.065-.237.216-.237h4.379a.193.193,0,0,1,.216.151v20.58c0,.388.022.82.043,1.294.043.453.065.884.086,1.251a.35.35,0,0,1-.216.345,16.476,16.476,0,0,1-3.516,1.035A19.029,19.029,0,0,1,139.379,76.247Zm2.114-4.315V62.441a5.519,5.519,0,0,0-.582-.108c-.237-.022-.475-.043-.712-.043a5.318,5.318,0,0,0-2.438.561,4.836,4.836,0,0,0-1.834,1.6,4.782,4.782,0,0,0-.712,2.74,6.012,6.012,0,0,0,.367,2.222,4.216,4.216,0,0,0,.971,1.532,3.727,3.727,0,0,0,1.467.863,5.647,5.647,0,0,0,1.791.28c.324,0,.626-.022.906-.043A1.887,1.887,0,0,0,141.493,71.933Z" transform="translate(-109.73 -51.284)" fill="#ff61f6"/>
    </g>
  </g>
</svg>
