<svg xmlns="http://www.w3.org/2000/svg" width="42.895" height="42.895" viewBox="0 0 42.895 42.895">
  <path id="Icon_ionic-ios-arrow-dropleft-circle" data-name="Icon ionic-ios-arrow-dropleft-circle" d="M24.322,3.375A20.947,20.947,0,1,0,45.27,24.322,20.944,20.944,0,0,0,24.322,3.375ZM28.693,32.49a1.951,1.951,0,0,1,0,2.749,1.92,1.92,0,0,1-1.37.564,1.954,1.954,0,0,1-1.38-.574l-9.467-9.5a1.941,1.941,0,0,1,.06-2.679l9.608-9.638a1.944,1.944,0,0,1,2.749,2.749l-8.248,8.157Z" transform="translate(-2.875 -2.875)" fill="#fff" stroke="#7a7a7a" stroke-width="1"/>
</svg>
